<svg width="64" height="64" viewBox="0 0 64 64" fill="none" xmlns="http://www.w3.org/2000/svg">
<path d="M63.1954 28.1126C62.7853 27.4709 59.8429 22.2416 58.2566 19.4236C57.413 17.9253 56.7466 16.7417 56.4667 16.2508L56.4442 16.2109L56.4192 16.1726C55.7667 15.1126 54.8392 13.898 53.4467 13.898C53.2203 13.9022 52.9944 13.9291 52.7705 13.978C52.7242 13.9871 52.6767 13.9982 52.6267 14.0053C52.3204 14.0545 51.3692 14.2782 49.1093 14.8199C47.3593 15.2363 44.7206 15.8691 44.3206 15.9236L44.2319 15.9345L44.1457 15.958C42.8956 16.2818 42.0681 17.0891 41.7006 18.3562C41.5068 19.0253 41.2982 20.3836 42.0681 21.9672C42.2593 22.3709 42.9218 23.7054 44.0605 25.9981C44.8181 27.5254 45.6693 29.2381 46.4042 30.7253L32.487 35.4546L18.8323 2.91818L18.8073 2.85634L18.7785 2.79627L18.7235 2.67814C18.1647 1.48547 17.4697 0 15.4623 0C15.3211 0 15.1736 1.7257e-06 15.0085 0.0199498C14.4336 0.065387 12.331 0.305429 9.89741 0.585367C7.21108 0.892567 3.53501 1.31258 3.0574 1.33076H2.96616L2.86748 1.34539C1.72503 1.50719 0.896314 2.18165 0.40501 3.34529C-0.413732 5.28912 0.22745 7.47077 0.437456 8.18712C0.858808 9.63624 4.69488 21.3998 8.07864 31.7835C10.3286 38.6817 12.651 45.8145 12.8411 46.4473C13.1752 47.6291 13.7472 48.6365 14.482 49.3371C15.2168 50.0377 16.0802 50.3985 16.9586 50.3726C17.3731 50.3699 17.7863 50.303 18.1909 50.1727H18.2173L18.2423 50.1636C19.9747 49.549 25.4709 47.52 29.3921 46.0563C29.6295 46.6598 29.8795 47.2982 30.1421 47.9545C32.8833 54.9544 34.8795 60.0181 35.5369 61.3108C35.8745 61.9999 36.8745 64 38.757 64C39.4394 64 40.0645 63.7453 40.7244 63.4745L40.9157 63.3962H40.9307C42.2468 62.8508 59.7666 53.9127 60.6641 53.3327L60.6917 53.3145C61.3715 52.8763 62.3991 52.2145 62.714 50.5144C62.9203 49.4018 62.7365 48.2727 62.1666 47.1581L62.1578 47.1417L62.1491 47.1253C62.0428 46.9254 61.6491 46.1782 61.1154 45.1436C59.9741 42.949 58.1304 39.4036 56.5104 36.3181C58.6816 35.5 61.3604 34.48 61.9328 34.218C63.3665 33.5945 63.8004 32.2744 63.9328 31.5399C64.0315 30.9671 64.1603 29.5036 63.1954 28.1126ZM23.196 38.6926C20.9697 39.4508 19.4185 39.9799 18.4597 40.3108C17.626 37.8853 15.9923 33.1018 14.3973 28.4326C10.6798 17.5381 8.75986 11.9289 7.74987 8.99635L8.76864 8.8689C10.436 8.65989 12.7198 8.37442 13.9911 8.21993C16.086 13.3581 23.2809 31.0017 26.0284 37.7291L23.196 38.6926ZM45.4655 50.809C42.4394 52.2635 40.7994 53.0581 39.9131 53.4889C39.1256 51.6089 37.3932 47.3946 35.8545 43.6364L50.3168 38.2763C50.9418 39.5144 52.138 41.8617 54.4992 46.4453C52.2405 47.5435 48.4742 49.3581 45.4655 50.809ZM52.4492 28.6944L49.4793 22.9618C51.1879 22.5271 52.1717 22.2762 52.748 22.1253L54.248 24.8309L55.7404 27.5254C54.7155 27.8872 53.523 28.3109 52.4492 28.6944Z" fill="#808080" fill-opacity="0.5"/>
</svg>
