<svg width="66" height="66" viewBox="0 0 66 66" fill="none" xmlns="http://www.w3.org/2000/svg">
<path d="M64.5609 18.2587L47.4064 1.45374C47.1106 1.1638 46.7025 1 46.2754 1H20.7078C17.6948 1 15.2439 3.3098 15.2439 6.14954V22.9744H5.15702C2.86481 22.9744 1 24.7318 1 26.8929V45.2113C1 47.3722 2.86481 49.1296 5.15702 49.1296H15.2439V59.8591C15.2439 62.6945 17.6952 65 20.7078 65H59.5359C62.5483 65 65 62.6959 65 59.8619V19.2851C65 18.9024 64.8426 18.5347 64.5609 18.2587ZM46.8713 5.19801L60.0325 18.0911H46.8713V5.19801ZM5.15702 46.1696C4.5962 46.1696 4.13967 45.7394 4.13967 45.2113V26.8929C4.13967 26.3648 4.5962 25.9344 5.15702 25.9344H40.124C40.6854 25.9344 41.1418 26.3648 41.1418 26.8929V45.2113C41.1418 45.7394 40.6852 46.1696 40.124 46.1696H5.15702ZM61.8601 59.8619C61.8601 61.0613 60.8188 62.04 59.5359 62.04H20.7078C19.4253 62.04 18.3835 61.0605 18.3835 59.8593V49.1296H40.124C42.4168 49.1296 44.2816 47.3722 44.2816 45.2113V26.8929C44.2816 24.7318 42.4168 22.9744 40.124 22.9744H18.3834V6.14954C18.3834 4.94246 19.426 3.96 20.7078 3.96H43.7316V19.5712C43.7316 20.3885 44.4345 21.0511 45.3013 21.0511H61.8601V59.8619Z" fill="#808080" fill-opacity="0.5" stroke="#808080" stroke-opacity="0.5" stroke-width="0.3"/>
<path d="M15.4605 32.2428C15.0305 31.7158 14.497 31.3737 13.8598 31.2161C13.445 31.1111 12.5549 31.0591 11.1889 31.0591H7.58484V41.5455H9.83086V37.5897H11.2949C12.3118 37.5897 13.088 37.5396 13.6241 37.4396C14.0189 37.3583 14.4068 37.1926 14.789 36.9424C15.1709 36.6921 15.4856 36.3475 15.7336 35.9087C15.9815 35.4701 16.1052 34.9288 16.1052 34.285C16.1052 33.4506 15.8903 32.7697 15.4605 32.2428ZM13.5372 35.1292C13.3675 35.3627 13.1338 35.5346 12.8353 35.6441C12.5369 35.7537 11.9451 35.8086 11.0601 35.8086H9.83086V32.8329H10.9157C11.725 32.8329 12.2636 32.8566 12.5316 32.9043C12.8957 32.9665 13.1969 33.1213 13.4346 33.3694C13.6725 33.6172 13.7912 33.9322 13.7912 34.3137C13.7912 34.6237 13.7066 34.8955 13.5372 35.1292ZM24.6029 31.0591V35.1864H20.2025V31.0591H17.9565V41.5455H20.2025V36.9606H24.6029V41.5455H26.8489V31.0591H24.6029ZM37.0461 32.2428C36.6162 31.7158 36.0825 31.3737 35.4452 31.2161C35.0301 31.1111 34.14 31.0591 32.7746 31.0591H29.1705V41.5455H31.4161V37.5897H32.8807C33.8971 37.5897 34.6738 37.5396 35.2097 37.4396C35.6043 37.3583 35.9927 37.1926 36.3744 36.9424C36.7562 36.6921 37.0712 36.3475 37.3192 35.9087C37.5668 35.4701 37.6909 34.9288 37.6909 34.285C37.6909 33.4506 37.4761 32.7697 37.0461 32.2428ZM35.123 35.1292C34.9533 35.3627 34.7196 35.5346 34.4211 35.6441C34.1225 35.7537 33.5309 35.8086 32.6455 35.8086H31.4161V32.8329H32.5013C33.3106 32.8329 33.8493 32.8566 34.1174 32.9043C34.4816 32.9665 34.7827 33.1213 35.0202 33.3694C35.2581 33.6172 35.377 33.9322 35.377 34.3137C35.377 34.6235 35.2924 34.8955 35.123 35.1292Z" fill="#808080" fill-opacity="0.5"/>
</svg>
