<svg width="64" height="64" viewBox="0 0 64 64" fill="none" xmlns="http://www.w3.org/2000/svg">
<g clip-path="url(#clip0_116_64)">
<path d="M43.2373 18.0322L43.0373 19.0749C42.728 21.0509 42.84 21.6162 43.688 22.3496L44.5067 23.0269L43.6587 26.8082C43.152 29.0642 42.5307 30.9549 42.136 31.5762C41.7973 32.1122 41.4027 32.9016 41.3173 33.3256C41.176 33.8322 40.696 34.3416 39.9627 34.7922C39.3147 35.1602 38.0427 36.1469 37.1413 36.9389C36.4213 37.5869 35.9253 37.9842 35.656 38.1549L34.776 38.8509C34.4933 39.3042 34.3333 39.6696 34.272 39.9469C34.2107 40.2322 34.2453 40.4216 34.336 40.5602C34.424 40.6936 34.576 40.7869 34.784 40.8456C35.0302 40.9033 35.2837 40.9239 35.536 40.9069C36.1068 40.8679 36.6719 40.7678 37.2213 40.6082C37.408 40.5576 37.5547 40.5096 37.6827 40.4669C37.88 40.2242 38.336 39.7656 39.144 38.9682C41.288 36.8536 42.1067 35.6962 41.2613 36.0082C40.9493 36.1202 41.0907 35.8376 41.6267 35.2722C42.7573 34.1709 43.4053 32.5069 44.76 27.2882C45.832 23.1682 45.832 23.1096 46.6213 23.1096C46.992 23.1096 48.04 23.1736 48.04 23.1736V18.0322H45.6347H43.2373ZM53.4747 26.4722C53.304 26.4722 53.0213 26.7282 52.8533 27.0109C52.544 27.5176 52.9093 27.8269 57.5653 30.7336C60.3307 32.4856 62.56 33.9789 62.504 34.0936C62.448 34.1762 60.1893 35.6456 57.4827 37.3389C52.5707 40.3842 52.544 40.4136 52.9947 41.0349C53.56 41.7682 52.9947 42.0216 59.3707 38.0429L64 35.0802V32.8509L58.8347 29.6616C56.0427 27.9122 53.616 26.5016 53.4747 26.4722ZM10.5813 26.7842C10.44 26.7842 8.01333 28.2242 5.22133 29.9442L0 33.1336V35.3629L5.192 38.6082C8.072 40.3842 10.4987 41.8536 10.6107 41.8536C10.7227 41.8536 10.9493 41.5976 11.176 41.2882C11.5147 40.7522 11.2293 40.5256 6.46133 37.5069C1.92 34.6562 1.44 34.2616 1.89333 33.9522C2.176 33.7549 4.32 32.4269 6.63467 30.9896C11.912 27.7442 11.6293 27.9682 11.2053 27.2909C11.0373 27.0109 10.752 26.7576 10.584 26.7842H10.5813ZM33.7387 26.8456C32.96 26.8402 31.2853 28.0269 26.272 32.1202C26.056 32.6349 26.0373 32.9896 26.136 33.2189C26.2 33.3762 26.3173 33.4856 26.48 33.5656C26.64 33.6456 26.848 33.6936 27.0773 33.7122C27.5333 33.7522 28.072 33.6802 28.5067 33.5949L28.8 33.5282C28.9004 33.3936 29.0322 33.2855 29.184 33.2136C29.4933 33.0429 30.792 31.8589 32.0907 30.5896C34.376 28.2749 34.912 27.2296 33.9813 26.8909C33.905 26.8605 33.8208 26.8451 33.7387 26.8456ZM39.5947 28.4536C38.9093 28.4722 37.6747 29.2669 35.56 30.9549C34.4987 31.8162 33.8267 32.2802 33.4667 32.3762L32.0693 33.4802C31.544 34.4402 31.4667 35.0349 31.6053 35.3629C31.64 35.4438 31.6904 35.517 31.7536 35.5784C31.8168 35.6397 31.8914 35.6879 31.9733 35.7202C32.1771 35.8007 32.3943 35.8414 32.6133 35.8402C33.1367 35.8346 33.657 35.7584 34.16 35.6136C34.4221 35.5432 34.6811 35.4614 34.936 35.3682L35.0133 35.3362L35.1547 35.2616C35.4213 34.9176 36.0347 34.2696 36.8027 33.5229C39.2293 31.1816 40.4693 29.5176 40.216 28.8962C40.1013 28.5949 39.904 28.4429 39.5947 28.4536ZM33.1307 31.3336C32.9333 31.3549 32.4907 31.6962 31.6933 32.3949C30.5413 33.4136 29.2853 34.0002 28.8507 33.7389C28.7497 33.7617 28.6483 33.783 28.5467 33.8029C28.104 33.8909 27.552 33.9629 27.0587 33.9229C26.8262 33.9088 26.5984 33.8519 26.3867 33.7549C26.187 33.6636 26.0276 33.5023 25.9387 33.3016C25.84 33.0616 25.84 32.7629 25.952 32.3816L24.2187 33.8056L20.296 37.0509V42.3122L33.1493 32.1869C33.1468 32.076 33.1612 31.9654 33.192 31.8589C33.2907 31.5016 33.2853 31.3202 33.1307 31.3362V31.3336ZM38.6613 33.0376C38.4667 33.0376 38.1413 33.3122 37.6213 33.8642C36.9147 34.6189 35.8027 35.3496 35.2133 35.4989L35.1227 35.5469C35.0259 35.5868 34.9281 35.6242 34.8293 35.6589C34.6693 35.7122 34.4613 35.7762 34.2213 35.8402C33.7413 35.9709 33.144 36.0909 32.6107 36.0776C32.3592 36.0772 32.1102 36.0283 31.8773 35.9336C31.6578 35.8431 31.4819 35.671 31.3867 35.4536C31.232 35.0829 31.2933 34.5629 31.632 33.8242L20.2933 42.7549V45.9682H25.2747L35.84 37.6696C36.1147 37.3656 36.528 36.9496 37.0853 36.4296C38.5787 35.0456 38.9173 34.5682 38.9173 33.8616C38.9173 33.3122 38.856 33.0349 38.6613 33.0349V33.0376ZM41.176 38.2376L40.272 39.1389C39.7653 39.6189 38.8613 40.2109 38.2427 40.4642L38.12 40.5176L38.112 40.5309L38.0853 40.5576C38.0613 40.5762 38.0507 40.5789 38.032 40.5869C37.785 40.6804 37.5341 40.7631 37.28 40.8349C36.715 40.9994 36.1338 41.1022 35.5467 41.1416C35.2691 41.1594 34.9904 41.1351 34.72 41.0696C34.4854 41.0179 34.2782 40.8811 34.1387 40.6856C34.0107 40.4882 33.9733 40.2242 34.0453 39.8989C34.1026 39.6673 34.1877 39.4434 34.2987 39.2322L25.7733 45.9682H37.112L38.4667 44.4162C40.328 42.2456 41.176 40.6936 41.176 39.3656V38.2376Z" fill="#808080" fill-opacity="0.5"/>
</g>
<defs>
<clipPath id="clip0_116_64">
<rect width="64" height="64" fill="white"/>
</clipPath>
</defs>
</svg>
